<svg width="20" height="20" viewBox="0 0 20 20" fill="none" xmlns="http://www.w3.org/2000/svg">
<path d="M11.875 8.4375H14.375" stroke="white" stroke-width="1.25" stroke-linecap="round" stroke-linejoin="round"/>
<path d="M5.625 8.4375H8.125" stroke="white" stroke-width="1.25" stroke-linecap="round" stroke-linejoin="round"/>
<path d="M6.875 7.1875V9.6875" stroke="white" stroke-width="1.25" stroke-linecap="round" stroke-linejoin="round"/>
<path d="M13.4377 4.35156L6.56266 4.375C5.60777 4.37682 4.68392 4.7143 3.9527 5.32841C3.22148 5.94252 2.72944 6.79416 2.56266 7.73437V7.73437L1.28141 14.3047C1.19914 14.7635 1.26559 15.2366 1.47107 15.655C1.67655 16.0734 2.01031 16.4153 2.42369 16.6307C2.83707 16.8461 3.30845 16.9238 3.76911 16.8525C4.22976 16.7812 4.6556 16.5647 4.98453 16.2344V16.2344L8.35953 12.5L13.4377 12.4766C14.5151 12.4766 15.5484 12.0486 16.3103 11.2867C17.0721 10.5248 17.5002 9.4915 17.5002 8.41406C17.5002 7.33662 17.0721 6.30331 16.3103 5.54144C15.5484 4.77957 14.5151 4.35156 13.4377 4.35156V4.35156Z" stroke="white" stroke-width="1.25" stroke-linecap="round" stroke-linejoin="round"/>
<path d="M17.4375 7.71095L18.7188 14.3047C18.801 14.7635 18.7346 15.2366 18.5291 15.655C18.3236 16.0734 17.9899 16.4153 17.5765 16.6307C17.1631 16.8461 16.6917 16.9238 16.2311 16.8525C15.7704 16.7812 15.3446 16.5647 15.0156 16.2344V16.2344L11.6406 12.4844" stroke="white" stroke-width="1.25" stroke-linecap="round" stroke-linejoin="round"/>
</svg>
